<svg width="24" height="24" viewBox="0 0 24 24" fill="none" xmlns="http://www.w3.org/2000/svg">
<path d="M7.25165 18.926L4.23261 21.4639C4.12328 21.5558 3.98999 21.6146 3.8484 21.6334C3.70681 21.6521 3.56281 21.63 3.43334 21.5697C3.30387 21.5094 3.19431 21.4134 3.11755 21.293C3.04078 21.1725 3 21.0327 3 20.8898V6.00012C3 5.80121 3.07902 5.61044 3.21967 5.46979C3.36032 5.32914 3.55109 5.25012 3.75 5.25012H20.25C20.4489 5.25012 20.6397 5.32914 20.7803 5.46979C20.921 5.61044 21 5.80121 21 6.00012V18.0001C21 18.199 20.921 18.3898 20.7803 18.5305C20.6397 18.6711 20.4489 18.7501 20.25 18.7501H7.73426C7.5577 18.7501 7.3868 18.8124 7.25165 18.926Z" stroke="#8E9AA6" stroke-width="1.5" stroke-linecap="round" stroke-linejoin="round"/>
</svg>
