<svg width="32" height="32" viewBox="0 0 32 32" fill="none" xmlns="http://www.w3.org/2000/svg">
<path d="M27 19C27 21.9174 25.8411 24.7153 23.7782 26.7782C21.7153 28.8411 18.9174 30 16 30C13.0826 30 10.2847 28.8411 8.22183 26.7782C6.15893 24.7153 5 21.9174 5 19C5 16.0979 5.96039 13.1196 7.85443 10.1478C7.92904 10.0308 8.0272 9.93053 8.14267 9.85348C8.25814 9.77644 8.38838 9.72428 8.52511 9.70032C8.66185 9.67637 8.80207 9.68115 8.93685 9.71436C9.07164 9.74756 9.19803 9.80847 9.30798 9.8932L12.5274 12.3735L16.0602 2.65821C16.1141 2.51005 16.2022 2.37673 16.3174 2.26913C16.4327 2.16153 16.5717 2.08269 16.7232 2.03906C16.8747 1.99543 17.0343 1.98823 17.1892 2.01806C17.344 2.04789 17.4895 2.1139 17.614 2.2107C17.9972 2.50868 27 9.61879 27 19Z" fill="white"/>
</svg>
