<svg width="32" height="32" viewBox="0 0 32 32" fill="none" xmlns="http://www.w3.org/2000/svg">
<path d="M4.90115 26.474C4.83367 26.2755 4.77014 26.0759 4.71054 25.8752L2.29293 28.2928C2.10538 28.4804 2.00001 28.7347 2 28.9999C1.99999 29.2652 2.10534 29.5195 2.29287 29.7071C2.4804 29.8946 2.73476 30 2.99998 30C3.2652 30 3.51957 29.8947 3.70712 29.7071L6.12478 27.2895C5.92426 27.2295 5.7247 27.166 5.52609 27.0989C5.38101 27.0495 5.2492 26.9675 5.14085 26.8592C5.03249 26.7509 4.95048 26.6191 4.90115 26.474Z" fill="white"/>
<path d="M27.0989 5.52607C27.0496 5.38098 26.9676 5.24916 26.8592 5.1408C26.7509 5.03244 26.619 4.95044 26.4739 4.90113C24.7111 4.30254 22.8617 3.9981 21 4.00001C11.6262 4.00001 4.00001 11.6262 4.00001 21C3.9987 22.651 4.23806 24.2933 4.71052 25.8753L19.2929 11.2929C19.4805 11.1056 19.7348 11.0004 19.9999 11.0005C20.265 11.0006 20.5192 11.1059 20.7067 11.2934C20.8941 11.4808 20.9995 11.735 20.9995 12.0001C20.9996 12.2652 20.8944 12.5195 20.7071 12.7071L6.12476 27.2895C7.70669 27.7619 9.34903 28.0013 11 28C20.3738 28 28 20.3738 28 11C28.0019 9.13829 27.6975 7.28894 27.0989 5.52607Z" fill="white"/>
</svg>
