<svg width="32" height="32" viewBox="0 0 32 32" fill="none" xmlns="http://www.w3.org/2000/svg">
<path d="M27.125 4.38751C26.8574 4.20371 26.5489 4.08823 26.2264 4.05119C25.9039 4.01415 25.5773 4.05666 25.275 4.17501C23.525 4.86251 19.975 6.00001 16 6.00001C12.025 6.00001 8.475 4.86251 6.725 4.17501C6.42201 4.05716 6.09487 4.01495 5.77189 4.05203C5.44891 4.08911 5.13984 4.20436 4.87145 4.38781C4.60305 4.57125 4.38342 4.81736 4.23157 5.10482C4.07972 5.39227 4.00024 5.71241 4 6.03751V13C4 17.475 5.2125 21.6875 7.4 24.875C9.5875 28.0625 12.725 30 16 30C19.275 30 22.3375 28.1875 24.6 24.875C26.8625 21.5625 28 17.475 28 13V6.03751C28.0005 5.71185 27.921 5.39105 27.7684 5.10333C27.6158 4.81562 27.3949 4.5698 27.125 4.38751ZM10.0125 16.6625C9.92555 16.7611 9.82002 16.8415 9.70195 16.8993C9.58388 16.9571 9.45558 16.991 9.32439 16.9991C9.1932 17.0072 9.0617 16.9894 8.9374 16.9467C8.8131 16.9039 8.69845 16.8371 8.6 16.75C8.50231 16.6622 8.42287 16.556 8.36623 16.4375C8.30958 16.319 8.27685 16.1905 8.26988 16.0593C8.26292 15.9281 8.28186 15.7969 8.32564 15.673C8.36941 15.5492 8.43715 15.4352 8.525 15.3375C8.89797 14.9166 9.356 14.5797 9.86884 14.3489C10.3817 14.1181 10.9376 13.9988 11.5 13.9988C12.0624 13.9988 12.6183 14.1181 13.1312 14.3489C13.644 14.5797 14.102 14.9166 14.475 15.3375C14.5628 15.4352 14.6306 15.5492 14.6744 15.673C14.7181 15.7969 14.7371 15.9281 14.7301 16.0593C14.7232 16.1905 14.6904 16.319 14.6338 16.4375C14.5771 16.556 14.4977 16.6622 14.4 16.75C14.2165 16.9104 13.9812 16.9991 13.7375 17C13.5957 17.0001 13.4555 16.9701 13.3262 16.9119C13.1969 16.8537 13.0814 16.7687 12.9875 16.6625C12.7999 16.4538 12.5706 16.2869 12.3143 16.1727C12.058 16.0585 11.7806 15.9994 11.5 15.9994C11.2194 15.9994 10.942 16.0585 10.6857 16.1727C10.4294 16.2869 10.2001 16.4538 10.0125 16.6625ZM19.875 22.8375C18.725 23.5961 17.3776 24.0004 16 24.0004C14.6224 24.0004 13.275 23.5961 12.125 22.8375C11.9071 22.6879 11.7564 22.459 11.705 22.1997C11.6537 21.9405 11.7057 21.6714 11.85 21.45C11.9221 21.3398 12.0152 21.245 12.124 21.1708C12.2328 21.0967 12.3551 21.0448 12.484 21.0181C12.613 20.9914 12.7459 20.9904 12.8752 21.0152C13.0045 21.04 13.1276 21.09 13.2375 21.1625C14.0553 21.7086 15.0166 22 16 22C16.9834 22 17.9447 21.7086 18.7625 21.1625C18.8724 21.09 18.9955 21.04 19.1248 21.0152C19.2541 20.9904 19.387 20.9914 19.516 21.0181C19.6449 21.0448 19.7672 21.0967 19.876 21.1708C19.9848 21.245 20.0779 21.3398 20.15 21.45C20.2943 21.6714 20.3463 21.9405 20.295 22.1997C20.2436 22.459 20.0929 22.6879 19.875 22.8375ZM23.4 16.75C23.2165 16.9104 22.9812 16.9991 22.7375 17C22.5957 17.0001 22.4555 16.9701 22.3262 16.9119C22.1969 16.8537 22.0814 16.7687 21.9875 16.6625C21.7999 16.4538 21.5706 16.2869 21.3143 16.1727C21.058 16.0585 20.7806 15.9994 20.5 15.9994C20.2194 15.9994 19.942 16.0585 19.6857 16.1727C19.4294 16.2869 19.2001 16.4538 19.0125 16.6625C18.9256 16.7611 18.82 16.8415 18.702 16.8993C18.5839 16.9571 18.4556 16.991 18.3244 16.9991C18.1932 17.0072 18.0617 16.9894 17.9374 16.9467C17.8131 16.9039 17.6985 16.8371 17.6 16.75C17.5023 16.6622 17.4229 16.556 17.3662 16.4375C17.3096 16.319 17.2768 16.1905 17.2699 16.0593C17.2629 15.9281 17.2819 15.7969 17.3256 15.673C17.3694 15.5492 17.4372 15.4352 17.525 15.3375C17.898 14.9166 18.356 14.5797 18.8688 14.3489C19.3817 14.1181 19.9376 13.9988 20.5 13.9988C21.0624 13.9988 21.6183 14.1181 22.1312 14.3489C22.644 14.5797 23.102 14.9166 23.475 15.3375C23.5628 15.4352 23.6306 15.5492 23.6744 15.673C23.7181 15.7969 23.7371 15.9281 23.7301 16.0593C23.7232 16.1905 23.6904 16.319 23.6338 16.4375C23.5771 16.556 23.4977 16.6622 23.4 16.75Z" fill="white"/>
</svg>
