<svg width="32" height="32" viewBox="0 0 32 32" fill="none" xmlns="http://www.w3.org/2000/svg">
<path d="M12.0734 22.1224C11.8217 22.0385 11.5471 22.0581 11.3099 22.1767C11.0726 22.2953 10.8922 22.5033 10.8084 22.7549C9.98926 25.2122 7.32154 25.9733 5.79126 26.2086C6.02661 24.6776 6.78772 22.0104 9.245 21.1914C9.36966 21.1499 9.48492 21.0843 9.58421 20.9982C9.6835 20.9122 9.76486 20.8074 9.82365 20.6899C9.88244 20.5724 9.91749 20.4445 9.92682 20.3135C9.93615 20.1824 9.91956 20.0508 9.87801 19.9262C9.83646 19.8015 9.77076 19.6863 9.68466 19.5871C9.59856 19.4879 9.49375 19.4066 9.37621 19.3478C9.25868 19.2891 9.13074 19.2542 8.99968 19.2449C8.86863 19.2357 8.73704 19.2523 8.61243 19.294C6.56738 19.9757 5.06506 21.6003 4.2677 23.9923C3.91296 25.0652 3.717 26.1842 3.68604 27.3137C3.68605 27.579 3.79141 27.8333 3.97894 28.0208C4.16648 28.2084 4.42082 28.3137 4.68604 28.3137C5.81561 28.2828 6.93458 28.0868 8.00745 27.7321C10.3994 26.9348 12.024 25.4324 12.7058 23.3873C12.7897 23.1357 12.7701 22.8611 12.6515 22.6239C12.5329 22.3867 12.325 22.2063 12.0734 22.1224Z" fill="white"/>
<path d="M28.4514 5.22745C28.3899 4.80395 28.1932 4.41168 27.8906 4.1091C27.588 3.80651 27.1957 3.60983 26.7722 3.54837C25.3615 3.33786 21.6946 3.23422 18.1211 6.80752L16.9998 7.92886H9.34302C9.08027 7.92817 8.81998 7.97958 8.57722 8.08012C8.33446 8.18066 8.11404 8.32834 7.92872 8.51461L3.88599 12.5574C3.63004 12.8134 3.44836 13.134 3.36033 13.4852C3.2723 13.8363 3.28122 14.2047 3.38613 14.5512C3.49104 14.8976 3.68802 15.2091 3.95605 15.4524C4.22408 15.6957 4.55312 15.8617 4.90809 15.9327L9.84995 16.9211L15.0787 22.1498L16.067 27.0917C16.1379 27.4468 16.3039 27.7759 16.5472 28.044C16.7905 28.3121 17.102 28.5092 17.4486 28.6141C17.7951 28.719 18.1636 28.7278 18.5148 28.6397C18.8659 28.5516 19.1866 28.3698 19.4425 28.1137L23.4852 24.0709C23.6715 23.8856 23.8192 23.6652 23.9197 23.4225C24.0203 23.1798 24.0716 22.9195 24.0709 22.6568V14.9999L25.1923 13.8786C28.7658 10.3051 28.662 6.63821 28.4514 5.22745ZM9.34302 9.92886H14.9998L10.0143 14.9143L5.3003 13.9716L9.34302 9.92886ZM22.0709 22.6568L18.0282 26.6995L17.0854 21.9855L22.0709 17L22.0709 22.6568Z" fill="white"/>
</svg>
