<svg width="32" height="32" viewBox="0 0 32 32" fill="none" xmlns="http://www.w3.org/2000/svg">
<path d="M27.001 8H22V7C21.9991 6.20463 21.6827 5.4421 21.1203 4.87968C20.5579 4.31727 19.7954 4.00091 19 4H13C12.2046 4.00091 11.4421 4.31727 10.8797 4.87968C10.3173 5.4421 10.0009 6.20463 10 7V8H5.00098C4.47073 8.00061 3.96237 8.21151 3.58743 8.58646C3.21249 8.9614 3.00158 9.46975 3.00098 10V26C3.00158 26.5302 3.21249 27.0386 3.58743 27.4135C3.96237 27.7885 4.47073 27.9994 5.00098 28H27.001C27.5312 27.9994 28.0396 27.7885 28.4145 27.4135C28.7895 27.0386 29.0004 26.5302 29.001 26V10C29.0004 9.46975 28.7895 8.9614 28.4145 8.58646C28.0396 8.21151 27.5312 8.00061 27.001 8ZM12 13C12 13.2652 11.8946 13.5196 11.7071 13.7071C11.5196 13.8946 11.2652 14 11 14C10.7348 14 10.4804 13.8946 10.2929 13.7071C10.1054 13.5196 10 13.2652 10 13V11C10 10.7348 10.1054 10.4804 10.2929 10.2929C10.4804 10.1054 10.7348 10 11 10C11.2652 10 11.5196 10.1054 11.7071 10.2929C11.8946 10.4804 12 10.7348 12 11V13ZM12 7C12.0003 6.73488 12.1058 6.4807 12.2932 6.29323C12.4807 6.10576 12.7349 6.0003 13 6H19C19.2651 6.0003 19.5193 6.10576 19.7068 6.29323C19.8942 6.4807 19.9997 6.73488 20 7V8H12V7ZM22 13C22 13.2652 21.8946 13.5196 21.7071 13.7071C21.5196 13.8946 21.2652 14 21 14C20.7348 14 20.4804 13.8946 20.2929 13.7071C20.1054 13.5196 20 13.2652 20 13V11C20 10.7348 20.1054 10.4804 20.2929 10.2929C20.4804 10.1054 20.7348 10 21 10C21.2652 10 21.5196 10.1054 21.7071 10.2929C21.8946 10.4804 22 10.7348 22 11V13Z" fill="white"/>
</svg>
