<svg width="138" height="31" viewBox="0 0 138 31" fill="none" xmlns="http://www.w3.org/2000/svg">
<path fill-rule="evenodd" clip-rule="evenodd" d="M22.7849 15H17.9601C17.9609 15.0228 17.9612 15.0456 17.9612 15.0686C17.9612 16.1741 17.1211 17.0702 16.0847 17.0702C16.0563 17.0702 16.0281 17.0696 16 17.0682L16 22.2153C16.0282 22.2157 16.0564 22.2159 16.0846 22.2159C19.7852 22.2159 22.7852 19.0159 22.7852 15.0686C22.7852 15.0457 22.7851 15.0228 22.7849 15ZM26.685 15C26.6851 15.0229 26.6852 15.0457 26.6852 15.0686C26.6852 21.3135 21.9392 26.3759 16.0846 26.3759C16.0564 26.3759 16.0282 26.3758 16 26.3755L16 31C17.9698 31 19.9204 30.5861 21.7403 29.7821C23.5601 28.978 25.2137 27.7994 26.6066 26.3137C27.9995 24.828 29.1044 23.0641 29.8582 21.1229C30.612 19.1817 31 17.1012 31 15H26.685Z" fill="#C1CE38"/>
<path fill-rule="evenodd" clip-rule="evenodd" d="M16 22.2153V17.0682C14.9364 17.021 14.0886 16.1438 14.0886 15.0685C14.0886 15.0456 14.089 15.0228 14.0898 15L8.94336 15C8.94314 15.0228 8.94304 15.0457 8.94304 15.0686C8.94304 18.9858 12.0943 22.1669 16 22.2153ZM16 26.3755C9.79673 26.327 4.78301 21.2833 4.78301 15.0686C4.78301 15.0457 4.78308 15.0229 4.78322 15L0 15C-1.83688e-07 17.1011 0.413852 19.1817 1.21793 21.1229C2.022 23.0641 3.20055 24.828 4.68629 26.3137C6.17203 27.7994 7.93585 28.978 9.87706 29.7821C11.8183 30.5861 13.8988 31 16 31V26.3755Z" fill="#ABB82D"/>
<path fill-rule="evenodd" clip-rule="evenodd" d="M0 15C0 13.0302 0.413852 11.0796 1.21793 9.25975C2.022 7.43986 3.20055 5.78628 4.68629 4.3934C6.17203 3.00052 7.93585 1.89563 9.87706 1.14181C11.8183 0.387986 13.8988 0 16 0V4.4641C9.81958 4.50941 4.81996 9.20327 4.78322 15H0ZM16 8.36432V13.1896C14.9591 13.2329 14.1249 14.0215 14.0898 15H8.94336C8.97991 11.3572 12.1171 8.40938 16 8.36432Z" fill="#C1CE38"/>
<path fill-rule="evenodd" clip-rule="evenodd" d="M31 15C31 13.0302 30.612 11.0796 29.8582 9.25975C29.1044 7.43986 27.9995 5.78628 26.6066 4.3934C25.2137 3.00052 23.5601 1.89563 21.7403 1.14181C19.9204 0.387986 17.9698 0 16 0L16 4.4641C16.0282 4.46388 16.0565 4.46377 16.0848 4.46377C21.9179 4.46377 26.6506 9.17507 26.6852 15H31ZM22.785 15C22.7505 11.329 19.7639 8.36379 16.0848 8.36379C16.0565 8.36379 16.0282 8.36397 16 8.36432L16 13.1896C16.0281 13.1883 16.0564 13.1877 16.0849 13.1877C17.0997 13.1877 17.9265 13.9934 17.9603 15H22.785Z" fill="#ABB82D"/>
<path d="M55.2494 5H51.8607C51.3677 5 51.0905 5.27731 51.0905 5.77031V13.1036H44.9291V5.77031C44.9291 5.27731 44.6518 5 44.1589 5H40.7701C40.2772 5 39.9999 5.27731 39.9999 5.77031V25.7983C39.9999 26.2913 40.2772 26.5686 40.7701 26.5686H44.1589C44.6518 26.5686 44.9291 26.2913 44.9291 25.7983V17.8487H51.0905V25.7983C51.0905 26.2913 51.3677 26.5686 51.8607 26.5686H55.2494C55.7423 26.5686 56.0196 26.2913 56.0196 25.7983V5.77031C56.0196 5.27731 55.7423 5 55.2494 5Z" fill="#455A64"/>
<path d="M72.2504 11.1625H69.1697C68.6768 11.1625 68.3995 11.4398 68.3995 11.9328V20.1597C68.3995 21.9776 67.5369 22.7479 66.1506 22.7479C64.9799 22.7479 64.0865 22.07 64.0865 20.5294V11.9328C64.0865 11.4398 63.8092 11.1625 63.3163 11.1625H60.2356C59.7427 11.1625 59.4654 11.4398 59.4654 11.9328V20.93C59.4654 24.7815 61.5295 27 64.3946 27C66.3354 27 67.6601 26.2605 68.3995 25.1821V25.7983C68.3995 26.2913 68.6768 26.5686 69.1697 26.5686H72.2504C72.7433 26.5686 73.0205 26.2913 73.0205 25.7983V11.9328C73.0205 11.4398 72.7433 11.1625 72.2504 11.1625Z" fill="#455A64"/>
<path d="M85.353 10.7311C83.3814 10.7311 82.0567 11.5014 81.3481 12.5798V11.9328C81.3481 11.4398 81.0708 11.1625 80.5779 11.1625H77.4972C77.0043 11.1625 76.727 11.4398 76.727 11.9328V25.7983C76.727 26.2913 77.0043 26.5686 77.4972 26.5686H80.5779C81.0708 26.5686 81.3481 26.2913 81.3481 25.7983V17.5714C81.3481 15.7535 82.2107 14.9832 83.597 14.9832C84.7677 14.9832 85.6611 15.6611 85.6611 17.2017V25.7983C85.6611 26.2913 85.9384 26.5686 86.4313 26.5686H89.512C90.0049 26.5686 90.2821 26.2913 90.2821 25.7983V16.8011C90.2821 12.9496 88.2181 10.7311 85.353 10.7311Z" fill="#455A64"/>
<path d="M101.136 11.1625H99.4415V7.0028C99.4415 6.5098 99.1642 6.23249 98.6713 6.23249H95.5906C95.0977 6.23249 94.8204 6.5098 94.8204 7.0028V11.1625H93.126C92.6331 11.1625 92.3559 11.4398 92.3559 11.9328V14.8291C92.3559 15.3221 92.6331 15.5994 93.126 15.5994H94.8204V25.7983C94.8204 26.2913 95.0977 26.5686 95.5906 26.5686H98.6713C99.1642 26.5686 99.4415 26.2913 99.4415 25.7983V15.5994H101.136C101.629 15.5994 101.906 15.3221 101.906 14.8291V11.9328C101.906 11.4398 101.629 11.1625 101.136 11.1625Z" fill="#455A64"/>
<path d="M111.557 10.7311C106.69 10.7311 103.301 14.2745 103.301 18.8655C103.301 23.4566 106.567 27 111.681 27C114.823 27 117.349 25.6134 118.551 22.9328C118.797 22.4398 118.489 22.07 117.934 22.07L114.977 22.1008C114.576 22.1008 114.33 22.2549 114.022 22.5014C113.467 22.9636 112.605 23.2717 111.742 23.2717C110.109 23.2717 108.692 22.563 108.138 20.7143H114.669H118.427C118.889 20.7143 119.198 20.4986 119.259 20.0056C119.29 19.6359 119.321 19.2661 119.321 18.8655C119.321 14.2129 116.055 10.7311 111.557 10.7311ZM108.107 17.2017C108.569 15.6919 109.771 14.8291 111.527 14.8291C112.882 14.8291 114.238 15.4762 114.7 17.2017H108.107Z" fill="#455A64"/>
<path d="M137.23 5H134.149C133.656 5 133.379 5.27731 133.379 5.77031V12.6106C132.331 11.4398 130.822 10.7311 128.789 10.7311C124.753 10.7311 121.426 14.2745 121.426 18.8655C121.426 23.4566 124.753 27 128.789 27C130.822 27 132.331 26.3221 133.379 25.1513V25.7983C133.379 26.2913 133.656 26.5686 134.149 26.5686H137.23C137.723 26.5686 138 26.2913 138 25.7983V5.77031C138 5.27731 137.723 5 137.23 5ZM129.713 22.6246C127.587 22.6246 126.047 21.1765 126.047 18.8655C126.047 16.5546 127.587 15.1064 129.713 15.1064C131.839 15.1064 133.379 16.5546 133.379 18.8655C133.379 21.1765 131.839 22.6246 129.713 22.6246Z" fill="#455A64"/>
</svg>
