<svg width="32" height="32" viewBox="0 0 32 32" fill="none" xmlns="http://www.w3.org/2000/svg">
<path d="M23.999 20.9979H21.999C21.7338 20.9979 21.4795 21.1033 21.2919 21.2908C21.1044 21.4784 20.999 21.7327 20.999 21.9979C20.999 22.2631 21.1044 22.5175 21.2919 22.705C21.4795 22.8926 21.7338 22.9979 21.999 22.9979H23.999C24.2642 22.9979 24.5186 22.8926 24.7061 22.705C24.8937 22.5175 24.999 22.2631 24.999 21.9979C24.999 21.7327 24.8937 21.4784 24.7061 21.2908C24.5186 21.1033 24.2642 20.9979 23.999 20.9979Z" fill="white"/>
<path d="M23.999 15.9979H21.999C21.7338 15.9979 21.4795 16.1033 21.2919 16.2908C21.1044 16.4784 20.999 16.7327 20.999 16.9979C20.999 17.2631 21.1044 17.5175 21.2919 17.705C21.4795 17.8926 21.7338 17.9979 21.999 17.9979H23.999C24.2642 17.9979 24.5186 17.8926 24.7061 17.705C24.8937 17.5175 24.999 17.2631 24.999 16.9979C24.999 16.7327 24.8937 16.4784 24.7061 16.2908C24.5186 16.1033 24.2642 15.9979 23.999 15.9979Z" fill="white"/>
<path d="M26.999 10.9979H18.999V4.99792C18.9984 4.46768 18.7875 3.95932 18.4126 3.58438C18.0376 3.20944 17.5293 2.99853 16.999 2.99792H4.99902C4.46878 2.99853 3.96042 3.20944 3.58548 3.58438C3.21054 3.95932 2.99963 4.46768 2.99902 4.99792V27.9979C2.99903 28.2631 3.10438 28.5175 3.29192 28.705C3.47946 28.8926 3.73381 28.9979 3.99902 28.9979H17.999C18.2642 28.9979 18.5186 28.8926 18.7061 28.705C18.8937 28.5175 18.999 28.2631 18.999 27.9979V12.9979H26.999V27.9979C26.999 28.2631 27.1044 28.5175 27.2919 28.705C27.4795 28.8926 27.7338 28.9979 27.999 28.9979C28.2642 28.9979 28.5186 28.8926 28.7061 28.705C28.8937 28.5175 28.999 28.2631 28.999 27.9979V12.9979C28.9984 12.4677 28.7875 11.9593 28.4126 11.5844C28.0376 11.2094 27.5293 10.9985 26.999 10.9979ZM7.99902 7.99792H11.999C12.2642 7.99792 12.5186 8.10328 12.7061 8.29082C12.8937 8.47835 12.999 8.73271 12.999 8.99792C12.999 9.26314 12.8937 9.5175 12.7061 9.70503C12.5186 9.89257 12.2642 9.99792 11.999 9.99792H7.99902C7.73381 9.99792 7.47945 9.89257 7.29192 9.70503C7.10438 9.5175 6.99902 9.26314 6.99902 8.99792C6.99902 8.73271 7.10438 8.47835 7.29192 8.29082C7.47945 8.10328 7.73381 7.99792 7.99902 7.99792ZM11.999 24.9979H7.99902C7.73381 24.9979 7.47945 24.8926 7.29192 24.705C7.10438 24.5175 6.99902 24.2631 6.99902 23.9979C6.99902 23.7327 7.10438 23.4784 7.29192 23.2908C7.47945 23.1033 7.73381 22.9979 7.99902 22.9979H11.999C12.2642 22.9979 12.5186 23.1033 12.7061 23.2908C12.8937 23.4784 12.999 23.7327 12.999 23.9979C12.999 24.2631 12.8937 24.5175 12.7061 24.705C12.5186 24.8926 12.2642 24.9979 11.999 24.9979ZM13.999 19.9979H9.99902C9.73381 19.9979 9.47945 19.8926 9.29192 19.705C9.10438 19.5175 8.99902 19.2631 8.99902 18.9979C8.99902 18.7327 9.10438 18.4784 9.29192 18.2908C9.47945 18.1033 9.73381 17.9979 9.99902 17.9979H13.999C14.2642 17.9979 14.5186 18.1033 14.7061 18.2908C14.8937 18.4784 14.999 18.7327 14.999 18.9979C14.999 19.2631 14.8937 19.5175 14.7061 19.705C14.5186 19.8926 14.2642 19.9979 13.999 19.9979Z" fill="white"/>
</svg>
