<svg width="32" height="32" viewBox="0 0 32 32" fill="none" xmlns="http://www.w3.org/2000/svg">
<path d="M27.6996 21.6642C28.5346 19.9407 28.9784 18.0539 28.9992 16.1389C29.0201 14.2239 28.6175 12.328 27.8202 10.5867C27.023 8.84538 25.8508 7.30179 24.3875 6.06631C22.9242 4.83083 21.2059 3.93399 19.3556 3.43994C19.3331 3.43292 19.3103 3.42688 19.2874 3.42145C17.2575 2.89135 15.1294 2.86086 13.0851 3.33258C11.0409 3.80429 9.14132 4.76418 7.54895 6.13013C7.48803 6.17241 7.43204 6.22138 7.38202 6.27613C5.40669 8.02441 4.01025 10.3325 3.37834 12.8936C2.74642 15.4547 2.90897 18.1474 3.84438 20.6139C4.77978 23.0804 6.44373 25.2037 8.61502 26.7017C10.7863 28.1996 13.3621 29.0013 16 29C16.092 29 16.1836 28.9984 16.2751 28.9965C16.2774 28.9965 16.2797 28.9968 16.2819 28.9968C16.2863 28.9968 16.2905 28.9963 16.2948 28.9963C18.6557 28.9406 20.9571 28.2436 22.9522 26.9799C24.9473 25.7163 26.561 23.9337 27.6205 21.8231L27.6223 21.8204C27.6526 21.7707 27.6784 21.7184 27.6996 21.6642ZM27 16C27.0011 17.3105 26.767 18.6106 26.3086 19.8383L20.5085 16.271C20.2708 16.1244 20.0049 16.0296 19.7281 15.9927L16.8758 15.6082C16.5091 15.5606 16.1364 15.6149 15.7986 15.7652C15.4608 15.9154 15.1708 16.1558 14.9606 16.46H13.8927L13.4171 15.4774C13.2854 15.2031 13.0925 14.9627 12.8533 14.7748C12.614 14.5868 12.3348 14.4563 12.0371 14.3933L11.2162 14.2169L11.7886 12.858H14.4568C14.7949 12.8579 15.1275 12.7721 15.4236 12.6088L16.954 11.7637C17.0887 11.6893 17.2143 11.5996 17.3285 11.4965L20.6923 8.45423C20.9823 8.19398 21.1894 7.85426 21.2879 7.4773C21.3865 7.10033 21.3721 6.70272 21.2465 6.33387C22.986 7.27895 24.4385 8.67556 25.451 10.3767C26.4635 12.0777 26.9986 14.0204 27 16ZM5 16C4.99805 14.2772 5.40327 12.5783 6.18262 11.0419L7.48554 14.5194C7.6025 14.8338 7.79698 15.1135 8.05092 15.3326C8.30485 15.5517 8.61002 15.7031 8.93811 15.7728L9.6272 15.921L9.63288 15.9222L11.6168 16.3486L12.0925 17.3313C12.2573 17.6687 12.5133 17.9533 12.8315 18.1527C13.1496 18.3522 13.5173 18.4586 13.8928 18.46H14.0314L13.0695 20.6184C12.9099 20.9757 12.8588 21.372 12.9225 21.7581C12.9862 22.1442 13.1619 22.5031 13.4277 22.7903L15.7777 25.332L15.4576 26.9865C12.6388 26.844 9.98215 25.6248 8.03616 23.5804C6.09018 21.536 5.00335 18.8225 5 16Z" fill="white"/>
</svg>
