<svg width="32" height="32" viewBox="0 0 32 32" fill="none" xmlns="http://www.w3.org/2000/svg">
<circle opacity="0.5" cx="16" cy="16" r="16" fill="#1681E0"/>
<path d="M11 16.9375C11.0011 17.0199 10.9856 17.1016 10.9546 17.1779C10.9235 17.2542 10.8776 17.3236 10.8193 17.3818C10.7611 17.44 10.6917 17.486 10.6154 17.5171C10.5391 17.5481 10.4574 17.5636 10.375 17.5625H6.93752C6.82142 17.5616 6.70774 17.5291 6.60867 17.4686C6.50959 17.408 6.42883 17.3217 6.37502 17.2188C6.32499 17.114 6.30438 16.9976 6.31539 16.882C6.32639 16.7664 6.36861 16.656 6.43752 16.5625C6.99064 15.82 7.72871 15.2355 8.57815 14.8672C8.21314 14.5331 7.9327 14.1171 7.75991 13.6534C7.58711 13.1897 7.5269 12.6916 7.58423 12.2001C7.64156 11.7086 7.81479 11.2377 8.08967 10.8262C8.36455 10.4148 8.73321 10.0745 9.16531 9.83331C9.59742 9.59216 10.0806 9.45708 10.5751 9.43918C11.0696 9.42128 11.5613 9.52107 12.0098 9.73033C12.4582 9.9396 12.8505 10.2524 13.1544 10.6429C13.4583 11.0334 13.6651 11.4905 13.7578 11.9766C13.781 12.1032 13.7649 12.2338 13.7119 12.3511C13.6588 12.4683 13.5713 12.5666 13.461 12.6328C12.4505 13.232 11.682 14.1664 11.2891 15.2735C11.0954 15.8068 10.9975 16.3701 11 16.9375ZM25.5625 16.5625C25.0094 15.82 24.2713 15.2355 23.4219 14.8672C23.7869 14.5331 24.0673 14.1171 24.2401 13.6534C24.4129 13.1897 24.4732 12.6916 24.4158 12.2001C24.3585 11.7086 24.1853 11.2377 23.9104 10.8262C23.6355 10.4148 23.2668 10.0745 22.8347 9.83331C22.4026 9.59216 21.9194 9.45708 21.4249 9.43918C20.9304 9.42128 20.4387 9.52107 19.9903 9.73033C19.5419 9.9396 19.1496 10.2524 18.8457 10.6429C18.5418 11.0334 18.3349 11.4905 18.2422 11.9766C18.2191 12.1032 18.2351 12.2338 18.2882 12.3511C18.3412 12.4683 18.4287 12.5666 18.5391 12.6328C19.5509 13.2305 20.3198 14.1654 20.711 15.2735C20.9047 15.8068 21.0025 16.3701 21 16.9375C20.999 17.0199 21.0144 17.1016 21.0455 17.1779C21.0765 17.2542 21.1225 17.3236 21.1807 17.3818C21.239 17.44 21.3083 17.486 21.3846 17.5171C21.4609 17.5481 21.5427 17.5636 21.625 17.5625H25.0625C25.1786 17.5625 25.2924 17.5302 25.3911 17.4692C25.4898 17.4082 25.5696 17.3208 25.6215 17.217C25.6735 17.1132 25.6954 16.997 25.685 16.8814C25.6746 16.7658 25.6322 16.6554 25.5625 16.5625ZM18.2813 19.9141C18.9033 19.4373 19.3603 18.7777 19.5881 18.0278C19.8159 17.2779 19.8031 16.4755 19.5513 15.7333C19.2996 14.9912 18.8217 14.3465 18.1847 13.8899C17.5478 13.4333 16.7837 13.1878 16 13.1878C15.2163 13.1878 14.4523 13.4333 13.8153 13.8899C13.1783 14.3465 12.7004 14.9912 12.4487 15.7333C12.197 16.4755 12.1841 17.2779 12.4119 18.0278C12.6397 18.7777 13.0968 19.4373 13.7188 19.9141C12.5036 20.4536 11.5184 21.4056 10.9375 22.6016C10.8913 22.6966 10.8706 22.8021 10.8775 22.9075C10.8843 23.013 10.9185 23.1149 10.9766 23.2031C11.0307 23.2937 11.1074 23.3687 11.1991 23.4207C11.2909 23.4727 11.3945 23.5001 11.5 23.5H20.5C20.6055 23.5001 20.7092 23.4727 20.8009 23.4207C20.8927 23.3687 20.9694 23.2937 21.0235 23.2031C21.0816 23.1149 21.1157 23.013 21.1226 22.9075C21.1294 22.8021 21.1087 22.6966 21.0625 22.6016C20.4817 21.4056 19.4965 20.4536 18.2813 19.9141Z" fill="white"/>
</svg>
