<svg width="32" height="32" viewBox="0 0 32 32" fill="none" xmlns="http://www.w3.org/2000/svg">
<circle opacity="0.5" cx="16" cy="16" r="16" fill="#5659BA"/>
<path d="M20.375 11.625H9.125C8.43464 11.625 7.875 12.1846 7.875 12.875V21.625C7.875 22.3154 8.43464 22.875 9.125 22.875H20.375C21.0654 22.875 21.625 22.3154 21.625 21.625V12.875C21.625 12.1846 21.0654 11.625 20.375 11.625Z" fill="white"/>
<path d="M22.875 9.125H11C10.8342 9.125 10.6753 9.19085 10.5581 9.30806C10.4408 9.42527 10.375 9.58424 10.375 9.75C10.375 9.91576 10.4408 10.0747 10.5581 10.1919C10.6753 10.3092 10.8342 10.375 11 10.375H22.875V19.75C22.875 19.9158 22.9408 20.0747 23.0581 20.1919C23.1753 20.3092 23.3342 20.375 23.5 20.375C23.6658 20.375 23.8247 20.3092 23.9419 20.1919C24.0592 20.0747 24.125 19.9158 24.125 19.75V10.375C24.125 10.0435 23.9933 9.72554 23.7589 9.49112C23.5245 9.2567 23.2065 9.125 22.875 9.125Z" fill="white"/>
</svg>
