<svg width="32" height="32" viewBox="0 0 32 32" fill="none" xmlns="http://www.w3.org/2000/svg">
<circle opacity="0.5" cx="16" cy="16" r="16" fill="#FF9B4C"/>
<path d="M15.375 9.75V22.25C15.375 22.5815 15.2433 22.8995 15.0089 23.1339C14.7745 23.3683 14.4565 23.5 14.125 23.5H11C10.6685 23.5 10.3505 23.3683 10.1161 23.1339C9.8817 22.8995 9.75 22.5815 9.75 22.25V9.75C9.75 9.41848 9.8817 9.10054 10.1161 8.86612C10.3505 8.6317 10.6685 8.5 11 8.5H14.125C14.4565 8.5 14.7745 8.6317 15.0089 8.86612C15.2433 9.10054 15.375 9.41848 15.375 9.75ZM21 8.5H17.875C17.5435 8.5 17.2255 8.6317 16.9911 8.86612C16.7567 9.10054 16.625 9.41848 16.625 9.75V22.25C16.625 22.5815 16.7567 22.8995 16.9911 23.1339C17.2255 23.3683 17.5435 23.5 17.875 23.5H21C21.3315 23.5 21.6495 23.3683 21.8839 23.1339C22.1183 22.8995 22.25 22.5815 22.25 22.25V9.75C22.25 9.41848 22.1183 9.10054 21.8839 8.86612C21.6495 8.6317 21.3315 8.5 21 8.5Z" fill="white"/>
</svg>
