<svg width="32" height="32" viewBox="0 0 32 32" fill="none" xmlns="http://www.w3.org/2000/svg">
<path d="M15.1498 19.7434C16.4916 18.8522 17.5107 17.5527 18.0564 16.0372C18.6022 14.5217 18.6455 12.8708 18.18 11.3287C17.7146 9.78669 16.765 8.43548 15.4719 7.47508C14.1788 6.51467 12.6108 5.99609 11 5.99609C9.38929 5.99609 7.82133 6.51467 6.52821 7.47508C5.23509 8.43548 4.28552 9.78669 3.82004 11.3287C3.35456 12.8708 3.3979 14.5217 3.94364 16.0372C4.48938 17.5527 5.50853 18.8522 6.85026 19.7434C4.56301 20.5872 2.58619 22.1061 1.18182 24.0989C1.07638 24.2486 1.0141 24.4245 1.00178 24.6072C0.989454 24.79 1.02756 24.9726 1.11193 25.1352C1.1963 25.2977 1.3237 25.434 1.48023 25.5291C1.63676 25.6242 1.8164 25.6745 1.99957 25.6745L20.0001 25.6739C20.1833 25.6739 20.3629 25.6235 20.5194 25.5284C20.676 25.4333 20.8034 25.297 20.8877 25.1344C20.9721 24.9718 21.0101 24.7892 20.9978 24.6065C20.9854 24.4237 20.9231 24.2479 20.8177 24.0981C19.4134 22.1057 17.4368 20.5871 15.1498 19.7434Z" fill="white"/>
<path d="M31.0081 24.0982C29.6037 22.1057 27.6271 20.5871 25.3402 19.7434C26.8271 18.7536 27.9119 17.2657 28.3995 15.5473C28.887 13.8289 28.7453 11.9929 27.9997 10.3697C27.2542 8.74647 25.9538 7.44265 24.3325 6.69282C22.7113 5.943 20.8757 5.79641 19.156 6.27943C18.9999 6.32333 18.8568 6.40455 18.7391 6.51608C18.6213 6.62761 18.5325 6.7661 18.4802 6.91961C18.4279 7.07312 18.4137 7.23705 18.4389 7.39726C18.464 7.55747 18.5278 7.70916 18.6246 7.83924C19.7551 9.35774 20.4049 11.1799 20.4905 13.0711C20.5761 14.9622 20.0934 16.8356 19.1047 18.45C18.9742 18.6629 18.928 18.917 18.9753 19.1622C19.0226 19.4074 19.16 19.6261 19.3604 19.7752C19.7395 20.0573 20.1043 20.3583 20.4533 20.677C20.4714 20.6966 20.4895 20.7161 20.5094 20.7345C21.8441 21.9684 22.9259 23.4504 23.6943 25.0977C23.7748 25.2701 23.9028 25.4159 24.0633 25.5181C24.2238 25.6203 24.4102 25.6746 24.6005 25.6746L30.1906 25.6739C30.3737 25.6739 30.5533 25.6235 30.7098 25.5284C30.8664 25.4333 30.9937 25.297 31.0781 25.1344C31.1624 24.9718 31.2005 24.7892 31.1881 24.6065C31.1758 24.4237 31.1135 24.2479 31.0081 24.0981L31.0081 24.0982Z" fill="white"/>
</svg>
